<svg xmlns="http://www.w3.org/2000/svg" viewBox="0 0 123.17 54.31"><defs><style>.cls-1{fill:#e85430;}</style></defs><title>Asset 3name</title><g id="Layer_2" data-name="Layer 2"><g id="Layer_1-2" data-name="Layer 1"><path class="cls-1" d="M25.2,46.17h-.12c-2,3.13-5.32,4.77-9.74,4.77-6.62,0-13.28-5.27-13.28-15.07,0-10.73,7.5-15.74,14-15.74,4.41,0,7.3,1.57,9.09,4.28h.12l.18-3.56H35c-.09,2.91-.19,5.76-.19,8.67v32.7H25.2Zm0-12.47a6.46,6.46,0,0,0-.12-1.4A6.21,6.21,0,0,0,19,27.41c-4.71,0-7.16,3.62-7.16,8.18,0,4.74,2.73,7.93,7,7.93A6.26,6.26,0,0,0,25,38.85a8.16,8.16,0,0,0,.23-2Z" transform="translate(-2.06 -7.91)"/><path class="cls-1" d="M52.56,12.57c0,2.55-1.91,4.66-5.17,4.66s-5-2.11-5-4.66,1.94-4.66,5.11-4.66S52.51,10,52.56,12.57ZM42.65,50.22V20.85h9.57V50.22Z" transform="translate(-2.06 -7.91)"/><path class="cls-1" d="M60.13,30.42c0-3.81-.11-7-.24-9.57h8L68.28,25h.21A10.71,10.71,0,0,1,78,20.13a9,9,0,0,1,8.59,5.38h.12a13,13,0,0,1,4.09-3.79,11.25,11.25,0,0,1,6.06-1.59c5.73,0,10.65,3.9,10.65,13.25V50.22H98.25V34.72c0-4.56-1.7-7-4.85-7a4.93,4.93,0,0,0-4.62,3.36,8.18,8.18,0,0,0-.36,2.4v16.7H79.19V34.4c0-4.22-1.69-6.64-4.75-6.64a5.18,5.18,0,0,0-4.73,3.49,6.52,6.52,0,0,0-.35,2.35V50.22H60.13Z" transform="translate(-2.06 -7.91)"/><path class="cls-1" d="M125.23,12.57c0,2.55-1.91,4.66-5.17,4.66s-5-2.11-5-4.66,1.93-4.66,5.11-4.66S125.18,10,125.23,12.57Zm-9.91,37.65V20.85h9.56V50.22Z" transform="translate(-2.06 -7.91)"/></g></g></svg>